<?xml version="1.0" encoding="utf-8"?>
<!-- Generator: Adobe Illustrator 22.0.1, SVG Export Plug-In . SVG Version: 6.00 Build 0)  -->
<svg version="1.1" xmlns="http://www.w3.org/2000/svg" xmlns:xlink="http://www.w3.org/1999/xlink" x="0px" y="0px"
	 viewBox="0 0 106 91" style="enable-background:new 0 0 106 91;" xml:space="preserve">
<style type="text/css">
	.st0{fill:#FFFFFF;stroke:#000000;stroke-width:4.408;stroke-miterlimit:10;}
	.st1{fill:#FFFFFF;stroke:#FFFFFF;stroke-miterlimit:10;}
	.st2{fill:#FFFFFF;}
</style>
<g id="Capa_2">
</g>
<g id="Capa_1">
	<g>
		<path class="st1" d="M63.3,78.6c18.4-3,32.5-19,32.5-38.2C95.7,18.9,78.4,1.6,57,1.6S20.3,19,18.3,40.3c-4.2,43.8,59,48.3,59,48.3
			S61.4,78.9,63.3,78.6z M66.6,84.1c0,0-45.1-7.5-43.6-42.1C23.9,21.4,38,7.6,56.5,7.6S90,23,90,42c0,18.8-17.5,34.4-35.7,34.7
			L66.6,84.1z"/>
		<g>
			<g>
				<path class="st2" d="M34.2,62.1c-0.3,0-0.6-0.1-0.9-0.2c-1.4-0.7-2.7-2.7-3.9-6.2c-1.2-3.7-1.7-7-1.4-9.7
					c0.1-0.9,0.2-1.5,0.4-1.9c0.2-0.4,0.6-0.7,1.1-0.9c0,0,0.1,0,0.2-0.1c0.1,0,0.1,0,0.1,0C30.2,43,30.6,43,31,43
					c0.2,0,0.5,0,0.7,0.1c0.6,0.1,1.1,0.3,1.4,0.7c0.1,0.1,0.1,0.2,0.2,0.4c0.1,0.2,0.1,0.7,0,2.2c-0.2,2.1-0.1,4.4,0.1,6.9
					c0.1,1,0.3,2,0.5,2.9c0-0.4,0.1-0.8,0.1-1.4c0.4-6.3,1.4-11.8,3.1-16.3c0.4-1,0.9-2.2,1.6-3.6c0.7-1.4,1.2-2.3,1.7-2.8
					c0.3-0.5,0.7-0.8,1.2-0.9c0.3-0.1,0.6-0.1,0.9-0.1c0.4,0,0.7,0.1,1.1,0.2c0.7,0.2,1.3,0.6,1.7,1.1c0.4,0.5,0.8,1.2,1.1,2.2
					c0.4,1.2,0.6,2.6,0.6,4.3c0,1.5-0.2,3.5-0.4,6.1c-0.5,4.3-0.6,7.6-0.5,9.7c0.1,1.4,0.3,2.7,0.7,3.8c0.6,1.8,1.2,2.2,1.5,2.3
					c0,0,0.2-0.1,0.6-0.8c0.3-0.6,0.6-1.1,0.8-1.7c0.4-1.5,0.8-4,1-7.5c0.2-4,0.3-4.1,0.4-4.2c0.1-0.2,0.4-0.5,0.9-0.5
					c0.6,0,0.8,0.3,0.9,0.5c0.1,0.2,0.1,0.4-0.4,7.1c-0.1,1.9-0.5,3.6-1.1,5.1c-0.6,1.6-1.3,2.5-2.1,3c-0.1,0.1-0.4,0.2-0.7,0.3
					c-0.3,0.1-0.6,0.1-0.8,0.1c-0.4,0-0.8-0.1-1.2-0.3c-1-0.5-1.8-1.8-2.5-3.9c0-0.1-0.1-0.3-0.1-0.5c-0.1-0.2-0.1-0.4-0.1-0.5
					c-0.5-1.8-0.8-3.5-0.9-5.2c-0.2-2.8-0.1-6.2,0.2-10.1c0.2-2.8,0.2-4.5,0.2-5c0-0.9-0.2-1.8-0.5-2.7c0-0.1-0.1-0.2-0.1-0.3
					c-0.2,0.2-0.7,0.8-1.7,2.7c-1,1.8-1.8,3.5-2.2,5c-1.4,4.3-2.2,9.8-2.2,16.5c0,2.5-0.2,3.2-0.3,3.4c-0.2,0.3-0.5,0.6-1,0.7
					C34.8,62,34.5,62.1,34.2,62.1z"/>
				<path class="st2" d="M42.4,31.3c0.3,0,0.7,0.1,1,0.2c0.7,0.2,1.2,0.5,1.6,1c0.4,0.4,0.7,1.1,1,2c0.4,1.1,0.6,2.5,0.6,4.1
					c0,1.5-0.2,3.5-0.4,6.1c-0.5,4.4-0.6,7.6-0.5,9.8c0.1,1.4,0.3,2.7,0.7,3.9c0.5,1.5,1.1,2.4,1.7,2.5c0,0,0,0,0.1,0
					c0,0,0.1,0,0.1,0c0.2-0.1,0.5-0.4,0.9-1c0.4-0.6,0.6-1.2,0.8-1.8c0.5-1.5,0.8-4.1,1-7.6c0.2-2.6,0.3-4,0.3-4.1
					c0.1-0.2,0.3-0.2,0.6-0.2c0,0,0,0,0,0c0.3,0,0.5,0.1,0.5,0.3c0.1,0.2,0,2.6-0.4,7c-0.1,1.9-0.5,3.5-1.1,5
					c-0.6,1.5-1.2,2.4-1.9,2.8c-0.1,0.1-0.3,0.2-0.6,0.3c-0.2,0.1-0.5,0.1-0.7,0.1c-0.4,0-0.7-0.1-1.1-0.3c-0.9-0.5-1.7-1.7-2.4-3.6
					c0-0.1-0.1-0.2-0.1-0.5c-0.1-0.2-0.1-0.4-0.1-0.5c-0.5-1.7-0.8-3.4-0.9-5.1c-0.2-2.8-0.1-6.1,0.2-10c0.2-2.9,0.2-4.6,0.2-5.1
					c0-0.9-0.2-1.9-0.5-2.8c-0.1-0.4-0.2-0.6-0.3-0.6c0,0-0.1,0-0.1,0c0,0,0,0,0,0c-0.4,0.1-1.1,1.1-2.1,3c-1,1.9-1.8,3.6-2.3,5.1
					C36.8,45.5,36,51,36,57.7c0,1.8-0.1,2.9-0.3,3.3c-0.1,0.2-0.4,0.4-0.8,0.6c-0.3,0.1-0.5,0.1-0.8,0.1c-0.3,0-0.5-0.1-0.8-0.2
					c-1.3-0.6-2.5-2.6-3.6-6c-1.2-3.7-1.7-6.9-1.4-9.5c0.1-0.9,0.2-1.5,0.4-1.8c0.2-0.3,0.4-0.6,0.8-0.7c0,0,0.1,0,0.2,0
					c0.1,0,0.2,0,0.2,0c0.3-0.1,0.7-0.1,1-0.1c0.2,0,0.4,0,0.7,0.1c0.5,0.1,0.9,0.3,1.1,0.5c0,0.1,0.1,0.1,0.1,0.3
					c0.1,0.3,0.1,0.9,0,2c-0.2,2.1-0.1,4.5,0.1,7c0.2,1.7,0.5,3.2,0.9,4.5c0.1,0.2,0.1,0.3,0.1,0.3c0,0,0,0,0,0c0,0,0.1-1.1,0.3-3.3
					c0.4-6.3,1.4-11.7,3-16.2c0.4-1,0.9-2.2,1.6-3.5c0.7-1.3,1.2-2.3,1.6-2.8c0.3-0.4,0.6-0.7,1-0.8C41.9,31.4,42.1,31.3,42.4,31.3
					 M42.4,30.6c-0.3,0-0.7,0.1-1,0.2c-0.5,0.2-1,0.5-1.4,1.1c-0.4,0.5-1,1.5-1.7,2.9c-0.7,1.4-1.2,2.6-1.6,3.6
					c-1.5,4.1-2.5,9-3,14.7c-0.3-2.4-0.3-4.7-0.1-6.7c0.2-1.5,0.1-2,0-2.3c-0.1-0.2-0.2-0.4-0.3-0.5c-0.3-0.4-0.9-0.6-1.6-0.8
					c-0.3,0-0.5-0.1-0.8-0.1c-0.4,0-0.8,0.1-1.2,0.2c0,0-0.1,0-0.1,0c-0.2,0-0.3,0.1-0.3,0.1c-0.6,0.2-1,0.6-1.3,1.1
					c-0.2,0.4-0.4,1.1-0.5,2.1c-0.3,2.7,0.1,6,1.4,9.8c1.2,3.6,2.5,5.8,4,6.5c0.4,0.2,0.7,0.2,1.1,0.2c0.3,0,0.7-0.1,1-0.2
					c0.6-0.2,1-0.5,1.2-0.9c0.2-0.3,0.3-1,0.3-3.6c0-6.6,0.8-12.1,2.2-16.4c0.5-1.5,1.2-3.1,2.2-5c0.6-1,1-1.7,1.2-2.1
					c0.2,0.7,0.3,1.4,0.3,2.1c0,0.4,0,1.5-0.2,5c-0.3,3.9-0.3,7.3-0.2,10.1c0.1,1.7,0.4,3.5,0.9,5.3c0,0.1,0.1,0.3,0.1,0.5
					c0.1,0.3,0.1,0.4,0.1,0.5c0.7,2.2,1.6,3.5,2.7,4.1c0.5,0.2,0.9,0.4,1.4,0.4c0.3,0,0.6-0.1,1-0.2c0.3-0.1,0.6-0.2,0.7-0.3
					c0.9-0.4,1.6-1.5,2.3-3.1c0.6-1.5,1-3.3,1.1-5.2c0.5-6.8,0.4-7.1,0.3-7.3c-0.1-0.2-0.3-0.8-1.2-0.8c0,0,0,0,0,0
					c-0.7,0-1.1,0.4-1.2,0.6l0,0l0,0c-0.1,0.2-0.2,0.3-0.4,4.4c-0.2,3.5-0.6,6-1,7.4c-0.2,0.6-0.4,1.1-0.7,1.6
					c-0.2,0.3-0.3,0.5-0.4,0.6c-0.2-0.2-0.6-0.6-1-1.9c-0.4-1.1-0.6-2.3-0.7-3.7c-0.1-2.1,0-5.3,0.5-9.7c0.3-2.6,0.4-4.7,0.4-6.1
					c0-1.7-0.2-3.2-0.6-4.4c-0.3-1-0.7-1.8-1.2-2.3c-0.5-0.5-1.1-0.9-1.9-1.2C43.2,30.7,42.8,30.6,42.4,30.6L42.4,30.6z"/>
			</g>
			<g>
				<path class="st2" d="M55.7,54.9c-0.6,0-1.3-0.2-1.8-0.7c-1-0.9-1.9-2.5-2.7-4.9c-0.2-0.6-0.3-1-0.4-1.3
					c-0.3-1.1-0.6-2.6-0.9-4.3c-0.3-1.8-0.5-2.9-0.5-3.3c0-0.3,0.2-0.7,0.8-0.9c0.3-0.1,0.5-0.1,0.8-0.1c0.3,0,0.7,0.1,1,0.2
					c0.5,0.2,0.8,0.4,1,0.7c0.2,0.2,0.4,0.7,0.6,1.4c0,0.1,0.1,0.4,0.5,4.5c0.2,2.7,0.5,4.6,0.9,5.7c0.3,1,0.7,1.4,0.9,1.5
					c0.2,0.1,0.3,0.2,0.4,0.2c0.3-0.1,1-0.7,1.9-5.8c0.7-4,1.2-4.5,1.6-4.6l0.1,0l0.1,0c0.1,0,0.2,0,0.2,0c0.1,0,0.3,0.1,0.3,0.3
					c0.1,0.3,0.2,1.1-0.3,3.9c-0.3,2.1-0.7,3.7-1.1,4.7c-0.6,1.5-1.5,2.5-2.6,2.9C56.3,54.8,56,54.9,55.7,54.9z M50.5,37.4
					c-0.2,0-0.3,0-0.5-0.1c-0.4-0.1-0.7-0.3-0.8-0.6c0-0.1-0.1-0.3-0.1-0.5c0-0.2-0.1-0.5-0.2-0.8c-0.1-0.3-0.2-0.7-0.2-1
					c-0.4-2-0.5-2.1-0.5-2.2c0-0.3,0.1-0.7,0.7-0.9c0.2-0.1,0.4-0.1,0.7-0.1c0.3,0,0.7,0.1,1.1,0.2c0.8,0.2,1.2,0.6,1.4,1.1
					c0.1,0.4,0.1,1.1,0,2.2c-0.1,1.1-0.3,1.8-0.6,2.1c-0.1,0.2-0.3,0.3-0.5,0.4C50.9,37.4,50.7,37.4,50.5,37.4z"/>
				<path class="st2" d="M49.6,31.6c0.3,0,0.6,0.1,1,0.2c0.6,0.2,1,0.5,1.2,0.9c0.1,0.4,0.1,1,0,2c-0.1,1-0.3,1.7-0.5,2
					c-0.1,0.1-0.2,0.2-0.4,0.3c-0.1,0-0.3,0.1-0.4,0.1c-0.1,0-0.3,0-0.4-0.1c-0.3-0.1-0.5-0.2-0.6-0.4c0-0.1-0.1-0.2-0.1-0.4
					c0-0.2-0.1-0.5-0.2-0.8c-0.1-0.3-0.2-0.7-0.2-1c-0.3-1.3-0.5-2-0.5-2.1c0-0.2,0.2-0.4,0.5-0.5C49.2,31.7,49.4,31.6,49.6,31.6
					 M51,39.6c0.3,0,0.6,0.1,0.9,0.2c0.4,0.1,0.6,0.3,0.8,0.5c0.2,0.2,0.3,0.7,0.6,1.3c0.1,0.2,0.2,1.7,0.5,4.4
					c0.2,2.7,0.6,4.7,0.9,5.8c0.3,0.9,0.6,1.5,1.1,1.7c0.2,0.1,0.4,0.2,0.6,0.2c0.1,0,0.1,0,0.2,0c0.7-0.2,1.4-2.3,2.1-6.1
					c0.5-2.8,0.9-4.2,1.3-4.3c0,0,0,0,0.1,0c0,0,0.1,0,0.1,0c0,0,0,0,0,0c0,0,0,0,0.1,0.1c0.1,0.4,0,1.7-0.3,3.7
					c-0.3,2.1-0.7,3.6-1.1,4.6c-0.5,1.4-1.3,2.3-2.4,2.6c-0.3,0.1-0.5,0.1-0.8,0.1c-0.6,0-1.1-0.2-1.6-0.6c-1-0.8-1.8-2.4-2.6-4.8
					c-0.2-0.6-0.3-1-0.4-1.3c-0.3-1.1-0.6-2.5-0.9-4.3c-0.3-1.8-0.5-2.8-0.5-3.2c0-0.2,0.2-0.4,0.5-0.5C50.6,39.7,50.8,39.6,51,39.6
					 M49.6,30.9c-0.3,0-0.6,0-0.8,0.1c-0.6,0.2-0.9,0.6-1,1.2l0,0.1l0,0.1c0,0.1,0,0.3,0.5,2.2c0.1,0.3,0.1,0.6,0.2,1
					c0.1,0.3,0.1,0.6,0.2,0.8c0,0.2,0.1,0.4,0.1,0.6c0.1,0.3,0.4,0.7,1.1,0.9c0.2,0.1,0.4,0.1,0.6,0.1c0.2,0,0.5,0,0.7-0.1
					c0.4-0.1,0.6-0.4,0.8-0.6c0.3-0.4,0.5-1.2,0.6-2.3c0.1-1.1,0.1-1.9,0-2.4c-0.2-0.6-0.8-1.1-1.7-1.4C50.4,30.9,50,30.9,49.6,30.9
					L49.6,30.9z M51,38.9c-0.3,0-0.6,0.1-0.9,0.2c-0.8,0.3-1,0.9-1,1.2l0,0l0,0c0,0.3,0,0.9,0.5,3.4c0.3,1.8,0.6,3.2,0.9,4.3
					c0.1,0.3,0.2,0.8,0.4,1.4c0.8,2.5,1.8,4.2,2.9,5.1c0.6,0.5,1.3,0.8,2.1,0.8c0.3,0,0.7-0.1,1-0.2c1.3-0.4,2.3-1.5,2.9-3.1
					c0.4-1.1,0.8-2.7,1.1-4.8c0.5-2.9,0.4-3.7,0.3-4.1c-0.1-0.3-0.4-0.5-0.6-0.6c-0.1,0-0.2-0.1-0.4-0.1c-0.1,0-0.2,0-0.3,0
					c-0.6,0.2-1,0.6-1.8,4.9c-0.8,4.5-1.4,5.4-1.6,5.5c0,0-0.1,0-0.1-0.1l0,0l0,0c-0.1,0-0.4-0.3-0.7-1.3c-0.3-1-0.6-2.9-0.9-5.6
					c-0.4-4.2-0.5-4.4-0.5-4.6c-0.2-0.7-0.5-1.2-0.7-1.5c-0.2-0.3-0.6-0.6-1.1-0.8C51.8,39,51.4,38.9,51,38.9L51,38.9z"/>
			</g>
			<g>
				<path class="st2" d="M74.1,54.2c-1.7,0-3-1.4-3.9-4.3c-1.1-3.3-1.6-7.9-1.7-13.8c0-1.8-0.1-2.6-0.1-3c-0.5,0.2-1.3,1.2-1.8,4.4
					c-0.5,2.8-0.7,5.6-0.8,8.3c-0.1,2-0.1,3.5-0.3,4.3c-0.2,0.9-0.5,1.4-0.9,1.6c-0.1,0-0.3,0.1-0.4,0.1c-0.3,0-0.7-0.1-1.1-0.3
					c-1.4-0.6-2.5-2.2-3.4-4.9c-1-3.1-1.4-5.9-1.2-8.5c0.1-1.3,0.4-1.9,0.8-2.1c0.1,0,0.2,0,0.3,0c0.2,0,0.5,0,0.8,0.1
					c1,0.3,1.6,0.8,1.9,1.6c0.2,0.6,0.3,1.7,0.3,3.6c0,3,0.4,5.5,1.1,7.7c0,0.1,0.1,0.2,0.1,0.2c0.1-0.6,0.2-1.6,0.3-3.5
					c0-0.8,0.1-1.9,0.3-3.2c0.2-1.8,0.2-2.2,0.2-2.2c0.1-1.8,0.5-3.9,1.2-6.1c0.8-2.4,1.7-3.7,2.9-4.1C68.8,30,69,30,69.2,30
					c0.9,0,1.8,0.6,2.6,2c0.2,0.3,0.4,0.6,0.5,1c0.4,1.3,0.6,3.6,0.5,7.2c-0.2,5.9,0,9.8,0.6,11.5c0.1,0.4,0.4,1,0.7,1
					c0,0,0.1,0,0.1,0c0.2-0.1,0.7-0.5,1.3-3.6c0.5-2.4,0.7-5.1,0.7-8.2c0-3.3,0.3-3.6,0.6-3.7c0.1,0,0.2-0.1,0.3-0.1l0.1,0
					c0.7,0.1,0.9,0.4,1,0.6c0.1,0.2,0.2,0.5-0.2,5.2c-0.2,3.2-0.4,5.2-0.6,6.1c-0.2,1.1-0.5,2.2-0.9,3.1c-0.4,1.1-0.9,1.7-1.5,1.8
					C74.8,54.1,74.4,54.2,74.1,54.2z"/>
				<path class="st2" d="M69.2,30.3c0.8,0,1.5,0.6,2.3,1.8c0.2,0.3,0.3,0.6,0.5,0.9c0.4,1.2,0.5,3.6,0.5,7.1
					c-0.2,5.9,0,9.8,0.6,11.7c0.3,0.8,0.6,1.2,1.1,1.2c0.1,0,0.2,0,0.3,0c0.6-0.2,1.1-1.5,1.6-3.9c0.5-2.4,0.7-5.2,0.7-8.2
					c0-2.2,0.1-3.3,0.4-3.4c0.1,0,0.1,0,0.2,0c0,0,0,0,0.1,0c0.4,0,0.6,0.2,0.7,0.4c0.1,0.3,0,2-0.2,5.1C77.5,46,77.3,48,77.2,49
					c-0.2,1.1-0.5,2.1-0.9,3.1c-0.4,0.9-0.8,1.5-1.2,1.6c-0.3,0.1-0.6,0.2-0.9,0.2c-1.5,0-2.7-1.3-3.5-4c-1.1-3.2-1.6-7.8-1.6-13.6
					c0-2-0.1-3.1-0.2-3.4c0,0,0,0-0.1,0c-0.1,0-0.1,0-0.3,0.1c-1,0.3-1.7,1.9-2.1,4.8c-0.5,2.9-0.7,5.6-0.8,8.3
					c-0.1,2-0.1,3.4-0.3,4.2c-0.1,0.8-0.4,1.2-0.7,1.3c-0.1,0-0.2,0.1-0.3,0.1c-0.3,0-0.6-0.1-1-0.3c-1.3-0.5-2.4-2.1-3.2-4.7
					c-1-3-1.4-5.8-1.1-8.4c0.1-1.1,0.3-1.6,0.6-1.7c0,0,0.1,0,0.2,0c0.2,0,0.4,0,0.7,0.1c0.8,0.2,1.4,0.7,1.6,1.4
					c0.2,0.5,0.3,1.7,0.3,3.4c0,3,0.4,5.6,1.2,7.8c0.3,0.8,0.4,1.2,0.5,1.2c0,0,0,0,0,0c0.1,0,0.1-0.1,0.2-0.4
					c0.1-0.4,0.3-1.8,0.4-4.2c0-0.8,0.1-1.8,0.3-3.1c0.1-1.3,0.2-2.1,0.2-2.3c0.1-1.8,0.5-3.8,1.2-6c0.7-2.2,1.6-3.5,2.7-3.8
					C68.9,30.4,69,30.3,69.2,30.3 M69.2,29.6L69.2,29.6c-0.2,0-0.5,0-0.7,0.1c-1.3,0.4-2.3,1.8-3.1,4.3c-0.7,2.3-1.2,4.4-1.2,6.2
					c0,0.1,0,0.4-0.2,2.2c-0.1,1.3-0.2,2.4-0.3,3.2c0,0.6-0.1,1.1-0.1,1.5c-0.4-1.7-0.6-3.7-0.6-5.9c0-2.5-0.2-3.3-0.3-3.7
					c-0.2-0.6-0.8-1.5-2.1-1.9c-0.4-0.1-0.7-0.1-0.9-0.1c-0.2,0-0.3,0-0.4,0.1c-0.7,0.2-1,1.1-1.1,2.4c-0.3,2.7,0.1,5.6,1.2,8.7
					c0.9,2.8,2.1,4.5,3.7,5.1c0.5,0.2,0.9,0.3,1.3,0.3c0.2,0,0.4,0,0.6-0.1c0.9-0.3,1.1-1.5,1.2-1.9c0.1-0.8,0.2-2.2,0.3-4.3
					c0.1-2.6,0.3-5.4,0.8-8.2c0.3-2.1,0.8-3.2,1.1-3.7c0,0.5,0,1.2,0.1,2.2c0,5.9,0.6,10.6,1.7,13.9c1,3,2.4,4.5,4.3,4.5
					c0.4,0,0.8-0.1,1.2-0.2c0.7-0.2,1.2-0.9,1.7-2.1c0.4-1,0.7-2.1,0.9-3.2c0.2-1,0.3-3,0.6-6.2c0.4-4.8,0.2-5.1,0.2-5.4
					c-0.1-0.4-0.4-0.8-1.3-0.9c0,0-0.1,0-0.1,0c-0.1,0-0.3,0-0.4,0.1c-0.7,0.2-0.9,0.8-0.9,4.1c0,3-0.2,5.7-0.7,8.1
					c-0.6,2.9-1.1,3.3-1.1,3.4c0,0-0.2-0.1-0.4-0.7c-0.6-1.7-0.8-5.6-0.5-11.4c0.1-3.6-0.1-6-0.5-7.3c-0.1-0.4-0.3-0.8-0.6-1.1
					C71.2,30.3,70.2,29.6,69.2,29.6L69.2,29.6z"/>
			</g>
			<g>
				<path class="st2" d="M81.4,46.4c-0.6,0-1.3-0.2-1.8-0.7c-1-0.9-1.9-2.5-2.7-4.9c-0.2-0.6-0.3-1-0.4-1.3
					c-0.3-1.1-0.6-2.6-0.9-4.3c-0.3-1.8-0.5-2.9-0.5-3.3c0-0.3,0.2-0.7,0.8-0.9c0.3-0.1,0.5-0.1,0.8-0.1c0.3,0,0.7,0.1,1,0.2
					c0.5,0.2,0.8,0.4,1,0.7c0.2,0.2,0.4,0.7,0.6,1.4c0,0.1,0.1,0.4,0.5,4.5c0.2,2.7,0.5,4.6,0.9,5.7c0.3,1,0.7,1.4,0.9,1.5
					c0.2,0.1,0.3,0.2,0.4,0.2c0.3-0.1,1-0.7,1.9-5.8c0.7-4,1.2-4.5,1.6-4.6l0.1,0l0.1,0c0.1,0,0.2,0,0.2,0c0.1,0,0.3,0.1,0.3,0.3
					c0.1,0.3,0.2,1.1-0.3,3.9c-0.3,2.1-0.7,3.7-1.1,4.7c-0.6,1.5-1.5,2.5-2.6,2.9C82,46.3,81.7,46.4,81.4,46.4z M76.2,28.9
					c-0.2,0-0.3,0-0.5-0.1c-0.4-0.1-0.7-0.3-0.8-0.6c0-0.1-0.1-0.3-0.1-0.5c0-0.2-0.1-0.5-0.2-0.8c-0.1-0.3-0.2-0.7-0.2-1
					c-0.4-2-0.5-2.1-0.5-2.2c0-0.3,0.1-0.7,0.7-0.9c0.2-0.1,0.4-0.1,0.7-0.1c0.3,0,0.7,0.1,1.1,0.2c0.8,0.2,1.2,0.6,1.4,1.1
					c0.1,0.4,0.1,1.1,0,2.2c-0.1,1.1-0.3,1.8-0.6,2.1c-0.1,0.2-0.3,0.3-0.5,0.4C76.6,28.9,76.4,28.9,76.2,28.9z"/>
				<path class="st2" d="M75.3,23.1c0.3,0,0.6,0.1,1,0.2c0.6,0.2,1,0.5,1.2,0.9c0.1,0.4,0.1,1,0,2c-0.1,1-0.3,1.7-0.5,2
					c-0.1,0.1-0.2,0.2-0.4,0.3c-0.1,0-0.3,0.1-0.4,0.1c-0.1,0-0.3,0-0.4-0.1c-0.3-0.1-0.5-0.2-0.6-0.4c0-0.1-0.1-0.2-0.1-0.4
					c0-0.2-0.1-0.5-0.2-0.8s-0.2-0.7-0.2-1c-0.3-1.3-0.5-2-0.5-2.1c0-0.2,0.2-0.4,0.5-0.5C74.9,23.1,75.1,23.1,75.3,23.1 M76.7,31.1
					c0.3,0,0.6,0.1,0.9,0.2c0.4,0.1,0.6,0.3,0.8,0.5c0.2,0.2,0.3,0.7,0.6,1.3c0.1,0.2,0.2,1.7,0.5,4.4c0.2,2.7,0.6,4.7,0.9,5.8
					c0.3,0.9,0.7,1.5,1.1,1.7c0.2,0.1,0.4,0.2,0.6,0.2c0.1,0,0.1,0,0.2,0c0.7-0.2,1.4-2.3,2.1-6.1c0.5-2.8,0.9-4.2,1.3-4.3
					c0,0,0,0,0.1,0c0,0,0.1,0,0.1,0c0,0,0,0,0,0c0,0,0,0,0.1,0.1c0.1,0.4,0,1.7-0.3,3.7c-0.3,2.1-0.7,3.6-1.1,4.6
					c-0.5,1.4-1.3,2.3-2.4,2.6C81.9,46,81.6,46,81.4,46c-0.6,0-1.1-0.2-1.6-0.6c-1-0.8-1.8-2.4-2.6-4.8c-0.2-0.6-0.3-1-0.4-1.3
					c-0.3-1.1-0.6-2.5-0.9-4.3c-0.3-1.8-0.5-2.8-0.5-3.2c0-0.2,0.2-0.4,0.5-0.5C76.2,31.2,76.5,31.1,76.7,31.1 M75.3,22.4
					c-0.3,0-0.6,0-0.8,0.1c-0.6,0.2-0.9,0.6-1,1.2l0,0.1l0,0.1c0,0.1,0,0.3,0.5,2.2c0.1,0.3,0.1,0.6,0.2,1c0.1,0.3,0.1,0.6,0.2,0.8
					c0,0.2,0.1,0.4,0.1,0.6c0.1,0.3,0.4,0.7,1.1,0.9c0.2,0.1,0.4,0.1,0.6,0.1c0.2,0,0.5,0,0.7-0.1c0.4-0.1,0.6-0.4,0.8-0.6
					c0.3-0.4,0.5-1.2,0.6-2.3c0.1-1.1,0.1-1.9,0-2.4c-0.2-0.6-0.8-1.1-1.7-1.4C76.1,22.4,75.7,22.4,75.3,22.4L75.3,22.4z M76.7,30.4
					c-0.3,0-0.6,0.1-0.9,0.2c-0.8,0.3-1,0.9-1,1.2l0,0l0,0c0,0.3,0,0.9,0.5,3.4c0.3,1.8,0.6,3.2,0.9,4.3c0.1,0.3,0.2,0.8,0.4,1.4
					c0.8,2.5,1.8,4.2,2.9,5.1c0.6,0.5,1.3,0.8,2.1,0.8c0.3,0,0.7-0.1,1-0.2c1.3-0.4,2.3-1.5,2.9-3.1c0.4-1.1,0.8-2.7,1.1-4.8
					c0.5-2.9,0.4-3.7,0.3-4.1c-0.1-0.3-0.4-0.5-0.6-0.6c-0.1,0-0.2-0.1-0.4-0.1c-0.1,0-0.2,0-0.3,0c-0.6,0.2-1,0.6-1.8,4.9
					c-0.8,4.5-1.4,5.4-1.6,5.5c0,0-0.1,0-0.1-0.1l0,0l0,0c-0.1,0-0.4-0.3-0.7-1.3c-0.3-1-0.6-2.9-0.9-5.6c-0.4-4.2-0.5-4.4-0.5-4.6
					c-0.2-0.7-0.5-1.2-0.7-1.5c-0.2-0.3-0.6-0.6-1.1-0.8C77.5,30.5,77.1,30.4,76.7,30.4L76.7,30.4z"/>
			</g>
		</g>
	</g>
</g>
</svg>
