<svg xmlns="http://www.w3.org/2000/svg" viewBox="0 0 106 91.03"><defs><style>.c715d4f1-d95d-4caf-8938-c3b53b08f4e2{fill:#1d1d1b;}</style></defs><title>logo_nuevo</title><g id="8d9448ef-bfd2-4362-a3fe-70496a7ba311" data-name="Capa 1"><path d="M63.26,78.56A38.74,38.74,0,0,0,57,1.59C35.6,1.59,20.31,19,18.25,40.33c-4.22,43.79,59,48.31,59,48.31S61.44,78.85,63.26,78.56Zm3.35,5.56S21.54,76.64,23,42C23.87,21.44,38,7.6,56.52,7.6S90,23,90,42c0,18.81-17.5,34.43-35.74,34.75Z"/><path class="c715d4f1-d95d-4caf-8938-c3b53b08f4e2" d="M34.18,62.09a2.5,2.5,0,0,1-.94-.19c-1.42-.65-2.68-2.69-3.85-6.24A22.72,22.72,0,0,1,28,46a5.66,5.66,0,0,1,.42-1.91,1.73,1.73,0,0,1,1.05-.89l.25,0,.13,0A4.2,4.2,0,0,1,31,43a4.4,4.4,0,0,1,.73.07,2.24,2.24,0,0,1,1.37.67.88.88,0,0,1,.21.38,5.73,5.73,0,0,1,0,2.15,34.94,34.94,0,0,0,.14,7,25.66,25.66,0,0,0,.5,2.9c0-.38.06-.84.09-1.39A59.48,59.48,0,0,1,37,38.39a30.27,30.27,0,0,1,1.59-3.57A17.6,17.6,0,0,1,40.29,32a2.5,2.5,0,0,1,1.21-.91,2.83,2.83,0,0,1,.87-.14,3.59,3.59,0,0,1,1.13.2,3.82,3.82,0,0,1,1.72,1.06,6.32,6.32,0,0,1,1.1,2.16,14.15,14.15,0,0,1,.59,4.25c0,1.47-.15,3.52-.43,6.11A60.34,60.34,0,0,0,46,54.44a14.2,14.2,0,0,0,.68,3.81c.6,1.81,1.17,2.19,1.45,2.26a2.6,2.6,0,0,0,.64-.82A7.24,7.24,0,0,0,49.54,58a38.8,38.8,0,0,0,1-7.52c.25-4,.32-4.12.37-4.23a1,1,0,0,1,.9-.46c.64,0,.83.34.9.54s.14.42-.35,7.14a18.18,18.18,0,0,1-1.1,5.12,5.38,5.38,0,0,1-2.11,3,4.33,4.33,0,0,1-.66.27,2.74,2.74,0,0,1-.84.14,2.84,2.84,0,0,1-1.24-.31c-1-.51-1.85-1.78-2.55-3.87,0-.09-.07-.26-.14-.5a5.08,5.08,0,0,0-.14-.5,22.36,22.36,0,0,1-.9-5.18,83.39,83.39,0,0,1,.16-10.06c.17-2.84.25-4.53.22-5a8.58,8.58,0,0,0-.46-2.68l-.09-.27a16.57,16.57,0,0,0-1.7,2.69,29.41,29.41,0,0,0-2.24,5c-1.44,4.28-2.17,9.83-2.19,16.5,0,2.5-.16,3.15-.3,3.44a1.61,1.61,0,0,1-1,.74A3.13,3.13,0,0,1,34.18,62.09Z"/><path class="c715d4f1-d95d-4caf-8938-c3b53b08f4e2" d="M42.37,31.33a3.13,3.13,0,0,1,1,.18,3.37,3.37,0,0,1,1.56.95,6,6,0,0,1,1,2,13.37,13.37,0,0,1,.58,4.14q0,2.19-.43,6.06a61.35,61.35,0,0,0-.5,9.77,14.8,14.8,0,0,0,.7,3.9c.51,1.53,1.08,2.37,1.73,2.52h.15c.24-.08.54-.41.89-1a7.78,7.78,0,0,0,.82-1.82,38.75,38.75,0,0,0,1-7.6c.16-2.61.28-4,.34-4.1a.61.61,0,0,1,.56-.24h0c.28,0,.45.1.51.27a69.32,69.32,0,0,1-.37,7,17.42,17.42,0,0,1-1.07,5A5,5,0,0,1,49,61.16a3.45,3.45,0,0,1-.61.26,2.57,2.57,0,0,1-.72.11,2.33,2.33,0,0,1-1.07-.27c-.92-.46-1.71-1.67-2.36-3.65,0-.09-.07-.25-.13-.47s-.11-.41-.15-.53a22,22,0,0,1-.89-5.08,80.83,80.83,0,0,1,.17-10c.17-2.88.24-4.56.21-5.05A9,9,0,0,0,43,33.69q-.18-.54-.3-.6l-.07,0h0c-.36.11-1.05,1.11-2.08,3a29.88,29.88,0,0,0-2.27,5.09Q36,47.64,36,57.75A10.55,10.55,0,0,1,35.74,61a1.22,1.22,0,0,1-.76.55,2.59,2.59,0,0,1-.8.14,2.18,2.18,0,0,1-.8-.15c-1.29-.6-2.51-2.61-3.64-6A22.22,22.22,0,0,1,28.39,46a5.5,5.5,0,0,1,.37-1.79,1.39,1.39,0,0,1,.84-.71l.19,0,.18,0a3.72,3.72,0,0,1,1-.13,3.79,3.79,0,0,1,.67.06,1.94,1.94,0,0,1,1.15.54.64.64,0,0,1,.13.25,6.5,6.5,0,0,1,0,2,34.25,34.25,0,0,0,.14,7,21.93,21.93,0,0,0,1,4.51c0,.17.09.26.12.26h0s.12-1.1.26-3.28a58.62,58.62,0,0,1,3-16.19A31.24,31.24,0,0,1,39,35a17.94,17.94,0,0,1,1.62-2.75,2.18,2.18,0,0,1,1-.8,2.67,2.67,0,0,1,.75-.11m0-.75a3.3,3.3,0,0,0-1,.15A2.87,2.87,0,0,0,40,31.79a17.69,17.69,0,0,0-1.7,2.86,28.59,28.59,0,0,0-1.6,3.62,56.91,56.91,0,0,0-3,14.65,34.19,34.19,0,0,1-.12-6.66,5.69,5.69,0,0,0,0-2.3,1.24,1.24,0,0,0-.29-.52,2.57,2.57,0,0,0-1.57-.78,4.45,4.45,0,0,0-2,.09l-.1,0a2.66,2.66,0,0,0-.32.06,2.13,2.13,0,0,0-1.27,1.08A5.91,5.91,0,0,0,27.64,46,23.09,23.09,0,0,0,29,55.78c1.21,3.65,2.53,5.76,4,6.46a3,3,0,0,0,1.11.22,3.53,3.53,0,0,0,1-.17,2,2,0,0,0,1.19-.93c.18-.35.35-1,.34-3.61,0-6.63.75-12.14,2.17-16.37a29.65,29.65,0,0,1,2.22-5,23.45,23.45,0,0,1,1.24-2.06,8.23,8.23,0,0,1,.3,2.13c0,.35,0,1.46-.21,5a82.24,82.24,0,0,0-.17,10.1,22.89,22.89,0,0,0,.92,5.25c0,.14.09.3.14.5l.15.53c.72,2.19,1.62,3.53,2.73,4.08a3,3,0,0,0,1.41.35,3.09,3.09,0,0,0,1-.15,4,4,0,0,0,.75-.32,5.63,5.63,0,0,0,2.25-3.13,18.19,18.19,0,0,0,1.13-5.23c.5-6.78.41-7.05.33-7.28a1.17,1.17,0,0,0-1.21-.79h0a1.38,1.38,0,0,0-1.23.58l0,0v0c-.1.19-.16.31-.42,4.38a38.93,38.93,0,0,1-1,7.44,7.27,7.27,0,0,1-.74,1.64,5.06,5.06,0,0,1-.39.55,4.07,4.07,0,0,1-1-1.92,14.77,14.77,0,0,1-.66-3.71,62.05,62.05,0,0,1,.49-9.65c.28-2.64.42-4.65.44-6.14a14.3,14.3,0,0,0-.62-4.38A6.56,6.56,0,0,0,45.5,32a4.15,4.15,0,0,0-1.89-1.17,3.94,3.94,0,0,0-1.24-.21Z"/><path class="c715d4f1-d95d-4caf-8938-c3b53b08f4e2" d="M55.73,54.9a2.85,2.85,0,0,1-1.84-.73c-1-.87-1.92-2.48-2.73-4.93a13.83,13.83,0,0,1-.4-1.35c-.27-1.09-.55-2.55-.86-4.32a27.06,27.06,0,0,1-.45-3.3,1,1,0,0,1,.78-.87,2.46,2.46,0,0,1,.81-.14,3.09,3.09,0,0,1,1.05.2,2,2,0,0,1,1,.67,5.51,5.51,0,0,1,.61,1.41,34.49,34.49,0,0,1,.49,4.51,28.45,28.45,0,0,0,.9,5.68c.33,1,.66,1.36.89,1.48a.74.74,0,0,0,.41.17c.29-.08,1-.7,1.94-5.85.75-4,1.18-4.48,1.56-4.61l.06,0H60a.67.67,0,0,1,.24,0,.46.46,0,0,1,.34.33c.11.33.18,1.07-.27,3.9a25.24,25.24,0,0,1-1.1,4.71,4.38,4.38,0,0,1-2.64,2.87A3.07,3.07,0,0,1,55.73,54.9ZM50.52,37.4a2.37,2.37,0,0,1-.52-.06,1,1,0,0,1-.81-.64,2.79,2.79,0,0,1-.11-.5c0-.19-.09-.46-.17-.79s-.15-.66-.22-1a22.26,22.26,0,0,1-.47-2.19,1,1,0,0,1,.74-.89,2.12,2.12,0,0,1,.69-.11,3.85,3.85,0,0,1,1.13.2,1.91,1.91,0,0,1,1.41,1.12,5.63,5.63,0,0,1,0,2.2,4.59,4.59,0,0,1-.59,2.14.89.89,0,0,1-.54.41A1.77,1.77,0,0,1,50.52,37.4Z"/><path class="c715d4f1-d95d-4caf-8938-c3b53b08f4e2" d="M49.65,31.63a3.74,3.74,0,0,1,1,.17,1.6,1.6,0,0,1,1.17.89,5.51,5.51,0,0,1,0,2,4.63,4.63,0,0,1-.52,2A.58.58,0,0,1,51,37a1.31,1.31,0,0,1-.44.07A1.52,1.52,0,0,1,50.1,37c-.31-.08-.5-.21-.56-.39a2.69,2.69,0,0,1-.09-.44c0-.2-.09-.47-.17-.81l-.23-1c-.29-1.3-.45-2-.46-2.14a.61.61,0,0,1,.48-.51,1.81,1.81,0,0,1,.58-.08m1.39,8a2.59,2.59,0,0,1,.92.18,1.65,1.65,0,0,1,.8.53,5.71,5.71,0,0,1,.56,1.31c.07.2.22,1.68.47,4.42a29.34,29.34,0,0,0,.91,5.77,2.94,2.94,0,0,0,1.06,1.69,1.14,1.14,0,0,0,.6.21.76.76,0,0,0,.21,0q1.08-.36,2.1-6.12c.51-2.76.95-4.2,1.31-4.32H60a.34.34,0,0,1,.15,0h0s0,0,.06.07A12.05,12.05,0,0,1,60,47.11a25.14,25.14,0,0,1-1.08,4.64,4,4,0,0,1-2.41,2.64,2.29,2.29,0,0,1-.76.13,2.44,2.44,0,0,1-1.6-.64,10.66,10.66,0,0,1-2.62-4.76c-.19-.56-.32-1-.39-1.31-.26-1.11-.55-2.54-.85-4.3a29.15,29.15,0,0,1-.45-3.24c0-.23.2-.41.53-.52a2.26,2.26,0,0,1,.69-.11m-1.39-8.76a2.6,2.6,0,0,0-.81.12,1.33,1.33,0,0,0-1,1.15v.13a19.89,19.89,0,0,0,.47,2.24c.07.31.15.64.23,1s.13.57.16.77a4,4,0,0,0,.12.55,1.39,1.39,0,0,0,1.08.88,2.55,2.55,0,0,0,.61.08,2.25,2.25,0,0,0,.68-.11,1.34,1.34,0,0,0,.76-.58,5.23,5.23,0,0,0,.63-2.28,6,6,0,0,0,0-2.36,2.28,2.28,0,0,0-1.65-1.36,4.35,4.35,0,0,0-1.25-.21Zm1.39,8h0a2.92,2.92,0,0,0-.93.15,1.35,1.35,0,0,0-1,1.17v.06a25.23,25.23,0,0,0,.46,3.37c.31,1.77.6,3.23.87,4.34a14,14,0,0,0,.4,1.38c.83,2.52,1.77,4.19,2.85,5.09a3.14,3.14,0,0,0,2.08.82,3.23,3.23,0,0,0,1-.17A4.73,4.73,0,0,0,59.6,52a25.16,25.16,0,0,0,1.12-4.78c.46-2.89.38-3.69.25-4.08a.82.82,0,0,0-.58-.57,1,1,0,0,0-.35-.06,1,1,0,0,0-.3,0c-.56.18-1,.64-1.81,4.89-.79,4.48-1.44,5.37-1.6,5.53l-.15-.07,0,0,0,0c-.08,0-.38-.27-.71-1.27a28.17,28.17,0,0,1-.89-5.6,34.24,34.24,0,0,0-.5-4.59,6.12,6.12,0,0,0-.66-1.51,2.42,2.42,0,0,0-1.15-.8A3.32,3.32,0,0,0,51,38.89Z"/><path class="c715d4f1-d95d-4caf-8938-c3b53b08f4e2" d="M74.11,54.21c-1.65,0-3-1.44-3.9-4.27-1.08-3.25-1.64-7.88-1.66-13.76,0-1.8-.08-2.63-.12-3-.55.25-1.28,1.24-1.8,4.44a65.48,65.48,0,0,0-.8,8.25,32.8,32.8,0,0,1-.28,4.26c-.16.91-.46,1.43-.94,1.59a1.63,1.63,0,0,1-.45.07,2.8,2.8,0,0,1-1.14-.3c-1.41-.57-2.54-2.17-3.43-4.87a21,21,0,0,1-1.16-8.54c.14-1.31.38-1.91.83-2.06a1.21,1.21,0,0,1,.3,0,3.59,3.59,0,0,1,.83.13,2.45,2.45,0,0,1,1.87,1.61,14.38,14.38,0,0,1,.31,3.55A25.48,25.48,0,0,0,63.7,49c0,.08,0,.16.08.22.07-.57.16-1.6.26-3.51,0-.81.13-1.87.25-3.16.16-1.7.19-2.13.19-2.24a22.93,22.93,0,0,1,1.21-6.12c.78-2.35,1.73-3.69,2.9-4.08a2.11,2.11,0,0,1,.61-.1c.91,0,1.77.64,2.63,2a4.11,4.11,0,0,1,.5,1c.42,1.25.57,3.61.47,7.2-.21,5.87,0,9.75.57,11.53.12.36.37,1,.72,1l.14,0c.17,0,.74-.47,1.34-3.64a46.4,46.4,0,0,0,.7-8.16c0-3.26.27-3.6.63-3.72a1.18,1.18,0,0,1,.31,0h.1c.66.07.9.38,1,.63s.16.47-.19,5.21c-.23,3.11-.42,5.17-.58,6.12a15.53,15.53,0,0,1-.9,3.14c-.43,1.06-.92,1.66-1.48,1.85A3.19,3.19,0,0,1,74.11,54.21Z"/><path class="c715d4f1-d95d-4caf-8938-c3b53b08f4e2" d="M69.2,30.35c.76,0,1.54.59,2.32,1.79a3.58,3.58,0,0,1,.46.94,24.85,24.85,0,0,1,.45,7.07Q72.1,49.06,73,51.8c.27.83.63,1.25,1.08,1.25a.85.85,0,0,0,.26,0c.6-.2,1.13-1.51,1.58-3.93a45.23,45.23,0,0,0,.71-8.23c0-2.16.14-3.28.38-3.36l.19,0h.05c.38,0,.6.17.67.37a35.11,35.11,0,0,1-.21,5.08q-.34,4.66-.57,6.09a15,15,0,0,1-.88,3c-.38.94-.8,1.48-1.25,1.63a2.73,2.73,0,0,1-.91.16q-2.22,0-3.55-4Q69,45,68.93,36.18a22.15,22.15,0,0,0-.19-3.42s0,0-.09,0a1.25,1.25,0,0,0-.26.05q-1.42.48-2.13,4.77a62.53,62.53,0,0,0-.8,8.3,35.81,35.81,0,0,1-.28,4.2c-.13.76-.36,1.19-.69,1.3a1.14,1.14,0,0,1-.33,0,2.51,2.51,0,0,1-1-.26c-1.31-.53-2.38-2.08-3.24-4.65a20.43,20.43,0,0,1-1.13-8.39c.11-1.06.3-1.64.57-1.73a.44.44,0,0,1,.18,0,3.86,3.86,0,0,1,.74.11,2.11,2.11,0,0,1,1.6,1.36,13.73,13.73,0,0,1,.29,3.44,25.84,25.84,0,0,0,1.16,7.83,3.76,3.76,0,0,0,.48,1.18h0c.06,0,.12-.14.18-.35a25,25,0,0,0,.39-4.22c0-.77.13-1.82.25-3.14s.19-2.08.19-2.28a23.05,23.05,0,0,1,1.2-6c.73-2.21,1.61-3.5,2.66-3.84a1.36,1.36,0,0,1,.49-.08m0-.75h0a2.33,2.33,0,0,0-.73.12c-1.29.43-2.32,1.84-3.13,4.32a23.28,23.28,0,0,0-1.24,6.2c0,.09,0,.44-.18,2.24-.13,1.31-.21,2.38-.26,3.17,0,.57,0,1.05-.08,1.47a28.15,28.15,0,0,1-.64-5.88,12.64,12.64,0,0,0-.33-3.66,2.8,2.8,0,0,0-2.11-1.85,4.15,4.15,0,0,0-.94-.14,1.33,1.33,0,0,0-.42.06c-.72.24-1,1.12-1.08,2.36a21.36,21.36,0,0,0,1.17,8.7c.94,2.82,2.13,4.49,3.67,5.11a3,3,0,0,0,1.26.32,1.79,1.79,0,0,0,.57-.09c.92-.3,1.12-1.49,1.19-1.88a35.39,35.39,0,0,0,.29-4.31,62.71,62.71,0,0,1,.79-8.2A10,10,0,0,1,68.11,34c0,.48,0,1.18.07,2.22,0,5.91.58,10.58,1.67,13.87,1,3,2.43,4.52,4.26,4.52a3.64,3.64,0,0,0,1.15-.19A3.28,3.28,0,0,0,77,52.32a16.33,16.33,0,0,0,.92-3.2c.16-1,.35-3,.58-6.17.36-4.82.25-5.13.17-5.36a1.36,1.36,0,0,0-1.3-.89h-.13a1.23,1.23,0,0,0-.42.07c-.66.21-.88.83-.9,4.07a45.55,45.55,0,0,1-.69,8.09c-.56,2.93-1.07,3.34-1.11,3.37a2.14,2.14,0,0,1-.37-.73c-.57-1.73-.75-5.57-.54-11.4.1-3.64-.06-6-.49-7.33a4.26,4.26,0,0,0-.56-1.13c-.92-1.42-1.89-2.11-2.93-2.11Z"/><path class="c715d4f1-d95d-4caf-8938-c3b53b08f4e2" d="M81.38,46.39a2.83,2.83,0,0,1-1.83-.73c-1-.86-1.93-2.47-2.74-4.92-.19-.57-.32-1-.4-1.36-.26-1.1-.55-2.55-.85-4.31a28,28,0,0,1-.46-3.3,1,1,0,0,1,.78-.88,2.51,2.51,0,0,1,.82-.13,3,3,0,0,1,1,.2,2,2,0,0,1,1,.66A5.9,5.9,0,0,1,79.33,33a39.06,39.06,0,0,1,.49,4.51,28.31,28.31,0,0,0,.9,5.68c.33,1,.66,1.36.88,1.48a.77.77,0,0,0,.41.17c.3-.08,1-.7,1.95-5.85.74-4,1.18-4.48,1.55-4.6l.06,0h.13a.66.66,0,0,1,.23,0,.47.47,0,0,1,.34.33c.11.33.18,1.08-.27,3.9a24.73,24.73,0,0,1-1.09,4.72,4.41,4.41,0,0,1-2.64,2.86A2.82,2.82,0,0,1,81.38,46.39ZM76.18,28.9a1.86,1.86,0,0,1-.52-.07,1.05,1.05,0,0,1-.82-.63c0-.11-.07-.27-.11-.5s-.09-.46-.16-.79-.16-.67-.23-1a19.19,19.19,0,0,1-.46-2.19.94.94,0,0,1,.73-.89,2.17,2.17,0,0,1,.69-.1,3.87,3.87,0,0,1,1.14.19,2,2,0,0,1,1.41,1.12,6.06,6.06,0,0,1,0,2.2,4.86,4.86,0,0,1-.59,2.15.92.92,0,0,1-.54.4A1.77,1.77,0,0,1,76.18,28.9Z"/><path class="c715d4f1-d95d-4caf-8938-c3b53b08f4e2" d="M75.3,23.12a3.49,3.49,0,0,1,1,.18,1.59,1.59,0,0,1,1.16.88,5.67,5.67,0,0,1,0,2,4.58,4.58,0,0,1-.52,2,.58.58,0,0,1-.36.27,1.31,1.31,0,0,1-.44.07,1.63,1.63,0,0,1-.43-.05c-.31-.08-.49-.21-.55-.39a4.49,4.49,0,0,1-.1-.44c0-.21-.09-.48-.17-.82s-.15-.66-.22-1c-.3-1.29-.45-2-.46-2.14a.58.58,0,0,1,.48-.5,1.7,1.7,0,0,1,.57-.09m1.4,8a2.54,2.54,0,0,1,.91.18,1.67,1.67,0,0,1,.8.53A5.48,5.48,0,0,1,79,33.15c.07.21.23,1.68.47,4.42a29,29,0,0,0,.92,5.77A2.94,2.94,0,0,0,81.42,45a1,1,0,0,0,.59.22.46.46,0,0,0,.21,0c.72-.23,1.42-2.28,2.11-6.12.51-2.76.94-4.2,1.3-4.32h.07a.43.43,0,0,1,.14,0h0s.05,0,.07.08a12.22,12.22,0,0,1-.29,3.73,24.34,24.34,0,0,1-1.07,4.63,4,4,0,0,1-2.41,2.64,2.35,2.35,0,0,1-.77.13,2.44,2.44,0,0,1-1.59-.64q-1.46-1.21-2.62-4.75-.28-.85-.39-1.32c-.27-1.1-.55-2.54-.85-4.3a28.79,28.79,0,0,1-.45-3.23c0-.24.19-.41.52-.52a2.1,2.1,0,0,1,.7-.12m-1.4-8.76a2.64,2.64,0,0,0-.81.12,1.36,1.36,0,0,0-1,1.16v.12c0,.09,0,.26.48,2.25.07.3.14.63.22,1s.13.58.16.77a3.47,3.47,0,0,0,.13.55,1.37,1.37,0,0,0,1.07.88,2.2,2.2,0,0,0,.62.08,2.13,2.13,0,0,0,.67-.1,1.34,1.34,0,0,0,.76-.58,5.23,5.23,0,0,0,.63-2.28,6,6,0,0,0,0-2.37,2.3,2.3,0,0,0-1.65-1.36,4.25,4.25,0,0,0-1.25-.21Zm1.4,8h0a3,3,0,0,0-.94.15,1.36,1.36,0,0,0-1,1.17v.07a23.44,23.44,0,0,0,.46,3.36c.3,1.78.59,3.24.86,4.35.08.33.21.8.4,1.37.84,2.52,1.77,4.19,2.86,5.1a3.1,3.1,0,0,0,3.07.65,4.75,4.75,0,0,0,2.88-3.09,25.24,25.24,0,0,0,1.11-4.79c.46-2.89.39-3.68.26-4.08a.84.84,0,0,0-.58-.56A1.15,1.15,0,0,0,85.7,34a.94.94,0,0,0-.3.05c-.57.19-1,.65-1.81,4.89-.8,4.48-1.44,5.38-1.61,5.54a.8.8,0,0,1-.14-.08l0,0h0c-.08-.05-.38-.28-.71-1.27a28.51,28.51,0,0,1-.88-5.6,32,32,0,0,0-.51-4.6A6.09,6.09,0,0,0,79,31.4a2.29,2.29,0,0,0-1.15-.79,3.29,3.29,0,0,0-1.17-.23Z"/></g></svg>